<mxfile host="app.diagrams.net" agent="Mozilla/5.0 (Macintosh; Intel Mac OS X 10_15_7) AppleWebKit/537.36 (KHTML, like Gecko) Chrome/135.0.0.0 Safari/537.36" version="26.2.12">
  <diagram name="Page-1" id="AVtZeMy9swBpl0Huy3II">
    <mxGraphModel dx="1980" dy="1168" grid="1" gridSize="10" guides="1" tooltips="1" connect="1" arrows="1" fold="1" page="1" pageScale="1" pageWidth="850" pageHeight="1100" math="0" shadow="0">
      <root>
        <mxCell id="0" />
        <mxCell id="1" parent="0" />
        <mxCell id="zXYwiYEsi97WQDjfsV8--1" value="ExternalServices" style="whiteSpace=wrap;strokeWidth=2;fillColor=#f8cecc;strokeColor=#b85450;" vertex="1" parent="1">
          <mxGeometry x="675" y="688" width="705" height="128" as="geometry" />
        </mxCell>
        <mxCell id="zXYwiYEsi97WQDjfsV8--2" value="Model" style="whiteSpace=wrap;strokeWidth=2;fillColor=#e1d5e7;strokeColor=#9673a6;" vertex="1" parent="1">
          <mxGeometry x="20" y="688" width="632" height="128" as="geometry" />
        </mxCell>
        <mxCell id="zXYwiYEsi97WQDjfsV8--3" value="Controller" style="whiteSpace=wrap;strokeWidth=2;fillColor=#fff2cc;strokeColor=#d6b656;" vertex="1" parent="1">
          <mxGeometry x="32" y="406" width="1260" height="232" as="geometry" />
        </mxCell>
        <mxCell id="zXYwiYEsi97WQDjfsV8--4" value="View" style="whiteSpace=wrap;strokeWidth=2;fillColor=#ffe6cc;strokeColor=#d79b00;" vertex="1" parent="1">
          <mxGeometry x="306" y="20" width="937" height="336" as="geometry" />
        </mxCell>
        <mxCell id="zXYwiYEsi97WQDjfsV8--5" value="Flutter UI" style="whiteSpace=wrap;strokeWidth=2;" vertex="1" parent="1">
          <mxGeometry x="684" y="45" width="129" height="54" as="geometry" />
        </mxCell>
        <mxCell id="zXYwiYEsi97WQDjfsV8--6" value="User Inputs: Genre, Mood, Lyrics, Voice" style="whiteSpace=wrap;strokeWidth=2;" vertex="1" parent="1">
          <mxGeometry x="619" y="149" width="260" height="78" as="geometry" />
        </mxCell>
        <mxCell id="zXYwiYEsi97WQDjfsV8--7" value="App AI Chat Interface" style="whiteSpace=wrap;strokeWidth=2;" vertex="1" parent="1">
          <mxGeometry x="642" y="277" width="213" height="54" as="geometry" />
        </mxCell>
        <mxCell id="zXYwiYEsi97WQDjfsV8--8" value="Node.js Server" style="whiteSpace=wrap;strokeWidth=2;" vertex="1" parent="1">
          <mxGeometry x="468" y="547" width="165" height="54" as="geometry" />
        </mxCell>
        <mxCell id="zXYwiYEsi97WQDjfsV8--9" value="Express.js API Routes" style="whiteSpace=wrap;strokeWidth=2;" vertex="1" parent="1">
          <mxGeometry x="303" y="431" width="211" height="54" as="geometry" />
        </mxCell>
        <mxCell id="zXYwiYEsi97WQDjfsV8--10" value="Authentication &amp; Session Manager" style="whiteSpace=wrap;strokeWidth=2;" vertex="1" parent="1">
          <mxGeometry x="158" y="535" width="260" height="78" as="geometry" />
        </mxCell>
        <mxCell id="zXYwiYEsi97WQDjfsV8--11" value="AI Request Handler" style="whiteSpace=wrap;strokeWidth=2;" vertex="1" parent="1">
          <mxGeometry x="742" y="547" width="196" height="54" as="geometry" />
        </mxCell>
        <mxCell id="zXYwiYEsi97WQDjfsV8--12" value="Firebase Sync Service" style="whiteSpace=wrap;strokeWidth=2;" vertex="1" parent="1">
          <mxGeometry x="1040" y="547" width="214" height="54" as="geometry" />
        </mxCell>
        <mxCell id="zXYwiYEsi97WQDjfsV8--13" value="MongoDB - Users, Projects, Tracks, Messages" style="whiteSpace=wrap;strokeWidth=2;" vertex="1" parent="1">
          <mxGeometry x="357" y="713" width="260" height="78" as="geometry" />
        </mxCell>
        <mxCell id="zXYwiYEsi97WQDjfsV8--14" value="OpenAI or TensorFlow - AI Engine" style="whiteSpace=wrap;strokeWidth=2;" vertex="1" parent="1">
          <mxGeometry x="710" y="713" width="260" height="78" as="geometry" />
        </mxCell>
        <mxCell id="zXYwiYEsi97WQDjfsV8--15" value="AWS EC2 and Firebase - Cloud &amp; Realtime DB" style="whiteSpace=wrap;strokeWidth=2;" vertex="1" parent="1">
          <mxGeometry x="1100" y="713" width="260" height="78" as="geometry" />
        </mxCell>
        <mxCell id="zXYwiYEsi97WQDjfsV8--16" value="" style="curved=1;startArrow=none;endArrow=block;exitX=0.5;exitY=1;entryX=0.5;entryY=0;rounded=0;" edge="1" parent="1" source="zXYwiYEsi97WQDjfsV8--5" target="zXYwiYEsi97WQDjfsV8--6">
          <mxGeometry relative="1" as="geometry">
            <Array as="points" />
          </mxGeometry>
        </mxCell>
        <mxCell id="zXYwiYEsi97WQDjfsV8--17" value="" style="curved=1;startArrow=none;endArrow=block;exitX=0.5;exitY=1;entryX=0.5;entryY=0;rounded=0;" edge="1" parent="1" source="zXYwiYEsi97WQDjfsV8--6" target="zXYwiYEsi97WQDjfsV8--7">
          <mxGeometry relative="1" as="geometry">
            <Array as="points" />
          </mxGeometry>
        </mxCell>
        <mxCell id="zXYwiYEsi97WQDjfsV8--18" value="" style="startArrow=none;endArrow=block;exitX=0;exitY=0.8;entryX=0.5;entryY=0;rounded=0;edgeStyle=orthogonalEdgeStyle;" edge="1" parent="1" source="zXYwiYEsi97WQDjfsV8--7" target="zXYwiYEsi97WQDjfsV8--9">
          <mxGeometry relative="1" as="geometry" />
        </mxCell>
        <mxCell id="zXYwiYEsi97WQDjfsV8--19" value="" style="startArrow=none;endArrow=block;exitX=1;exitY=0.76;entryX=0.5;entryY=0;rounded=0;edgeStyle=orthogonalEdgeStyle;" edge="1" parent="1" source="zXYwiYEsi97WQDjfsV8--7" target="zXYwiYEsi97WQDjfsV8--12">
          <mxGeometry relative="1" as="geometry" />
        </mxCell>
        <mxCell id="zXYwiYEsi97WQDjfsV8--20" value="" style="startArrow=none;endArrow=block;exitX=0.85;exitY=1;entryX=0.5;entryY=0;rounded=0;edgeStyle=orthogonalEdgeStyle;" edge="1" parent="1" source="zXYwiYEsi97WQDjfsV8--9" target="zXYwiYEsi97WQDjfsV8--8">
          <mxGeometry relative="1" as="geometry" />
        </mxCell>
        <mxCell id="zXYwiYEsi97WQDjfsV8--21" value="" style="startArrow=none;endArrow=block;exitX=0.2;exitY=1;entryX=0.719;entryY=0.004;rounded=0;entryDx=0;entryDy=0;entryPerimeter=0;" edge="1" parent="1" source="zXYwiYEsi97WQDjfsV8--9" target="zXYwiYEsi97WQDjfsV8--10">
          <mxGeometry relative="1" as="geometry" />
        </mxCell>
        <mxCell id="zXYwiYEsi97WQDjfsV8--22" value="" style="startArrow=none;endArrow=block;exitX=1;exitY=0.74;entryX=0.5;entryY=0;rounded=0;edgeStyle=orthogonalEdgeStyle;" edge="1" parent="1" source="zXYwiYEsi97WQDjfsV8--9" target="zXYwiYEsi97WQDjfsV8--11">
          <mxGeometry relative="1" as="geometry" />
        </mxCell>
        <mxCell id="zXYwiYEsi97WQDjfsV8--23" value="" style="startArrow=none;endArrow=block;exitX=0;exitY=0.85;entryX=0;entryY=0.21;rounded=0;edgeStyle=orthogonalEdgeStyle;" edge="1" parent="1" source="zXYwiYEsi97WQDjfsV8--9" target="zXYwiYEsi97WQDjfsV8--13">
          <mxGeometry relative="1" as="geometry">
            <Array as="points">
              <mxPoint x="110" y="477" />
              <mxPoint x="110" y="729" />
            </Array>
          </mxGeometry>
        </mxCell>
        <mxCell id="zXYwiYEsi97WQDjfsV8--24" value="" style="curved=1;startArrow=none;endArrow=block;exitX=0.5;exitY=1;entryX=0.5;entryY=0;rounded=0;" edge="1" parent="1" source="zXYwiYEsi97WQDjfsV8--11" target="zXYwiYEsi97WQDjfsV8--14">
          <mxGeometry relative="1" as="geometry">
            <Array as="points" />
          </mxGeometry>
        </mxCell>
        <mxCell id="zXYwiYEsi97WQDjfsV8--25" value="" style="startArrow=none;endArrow=block;exitX=0.51;exitY=1;entryX=0.5;entryY=0;rounded=0;edgeStyle=orthogonalEdgeStyle;" edge="1" parent="1" source="zXYwiYEsi97WQDjfsV8--12" target="zXYwiYEsi97WQDjfsV8--15">
          <mxGeometry relative="1" as="geometry" />
        </mxCell>
        <mxCell id="zXYwiYEsi97WQDjfsV8--26" value="" style="startArrow=none;endArrow=block;exitX=0.5;exitY=1;entryX=0.65;entryY=0;rounded=0;edgeStyle=orthogonalEdgeStyle;" edge="1" parent="1" source="zXYwiYEsi97WQDjfsV8--8" target="zXYwiYEsi97WQDjfsV8--13">
          <mxGeometry relative="1" as="geometry" />
        </mxCell>
        <mxCell id="zXYwiYEsi97WQDjfsV8--27" value="" style="startArrow=none;endArrow=block;exitX=0;exitY=0.72;entryX=0.888;entryY=0;rounded=0;edgeStyle=orthogonalEdgeStyle;entryDx=0;entryDy=0;entryPerimeter=0;" edge="1" parent="1" source="zXYwiYEsi97WQDjfsV8--12" target="zXYwiYEsi97WQDjfsV8--13">
          <mxGeometry relative="1" as="geometry">
            <Array as="points">
              <mxPoint x="990" y="586" />
              <mxPoint x="990" y="650" />
              <mxPoint x="588" y="650" />
            </Array>
          </mxGeometry>
        </mxCell>
        <mxCell id="zXYwiYEsi97WQDjfsV8--28" value="User Input: Mood / Genre / Lyrics / Voice" style="whiteSpace=wrap;strokeWidth=2;" vertex="1" parent="1">
          <mxGeometry x="675" y="1020" width="260" height="78" as="geometry" />
        </mxCell>
        <mxCell id="zXYwiYEsi97WQDjfsV8--29" value="AI Engine" style="whiteSpace=wrap;strokeWidth=2;" vertex="1" parent="1">
          <mxGeometry x="742" y="1148" width="126" height="54" as="geometry" />
        </mxCell>
        <mxCell id="zXYwiYEsi97WQDjfsV8--30" value="Generate Melody" style="whiteSpace=wrap;strokeWidth=2;" vertex="1" parent="1">
          <mxGeometry x="149" y="1252" width="182" height="54" as="geometry" />
        </mxCell>
        <mxCell id="zXYwiYEsi97WQDjfsV8--31" value="Generate Lyrics" style="whiteSpace=wrap;strokeWidth=2;" vertex="1" parent="1">
          <mxGeometry x="432" y="1252" width="171" height="54" as="geometry" />
        </mxCell>
        <mxCell id="zXYwiYEsi97WQDjfsV8--32" value="Analyze Voice Input" style="whiteSpace=wrap;strokeWidth=2;" vertex="1" parent="1">
          <mxGeometry x="705" y="1252" width="201" height="54" as="geometry" />
        </mxCell>
        <mxCell id="zXYwiYEsi97WQDjfsV8--33" value="Suggest Playlist" style="whiteSpace=wrap;strokeWidth=2;" vertex="1" parent="1">
          <mxGeometry x="992" y="1252" width="171" height="54" as="geometry" />
        </mxCell>
        <mxCell id="zXYwiYEsi97WQDjfsV8--34" value="Quiz / Teach Theory" style="whiteSpace=wrap;strokeWidth=2;" vertex="1" parent="1">
          <mxGeometry x="1213" y="1252" width="205" height="54" as="geometry" />
        </mxCell>
        <mxCell id="zXYwiYEsi97WQDjfsV8--35" value="Display Notes &amp; Playback" style="whiteSpace=wrap;strokeWidth=2;" vertex="1" parent="1">
          <mxGeometry x="120" y="1368" width="240" height="54" as="geometry" />
        </mxCell>
        <mxCell id="zXYwiYEsi97WQDjfsV8--36" value="Text Output for Lyrics" style="whiteSpace=wrap;strokeWidth=2;" vertex="1" parent="1">
          <mxGeometry x="410" y="1368" width="215" height="54" as="geometry" />
        </mxCell>
        <mxCell id="zXYwiYEsi97WQDjfsV8--37" value="Render Melody from Humming" style="whiteSpace=wrap;strokeWidth=2;" vertex="1" parent="1">
          <mxGeometry x="675" y="1356" width="260" height="78" as="geometry" />
        </mxCell>
        <mxCell id="zXYwiYEsi97WQDjfsV8--38" value="Generate Playlist" style="whiteSpace=wrap;strokeWidth=2;" vertex="1" parent="1">
          <mxGeometry x="985" y="1368" width="184" height="54" as="geometry" />
        </mxCell>
        <mxCell id="zXYwiYEsi97WQDjfsV8--39" value="Adaptive Quiz" style="whiteSpace=wrap;strokeWidth=2;" vertex="1" parent="1">
          <mxGeometry x="1235" y="1368" width="160" height="54" as="geometry" />
        </mxCell>
        <mxCell id="zXYwiYEsi97WQDjfsV8--40" value="" style="curved=1;startArrow=none;endArrow=block;exitX=0.5;exitY=1;entryX=0.5;entryY=0;rounded=0;" edge="1" parent="1" source="zXYwiYEsi97WQDjfsV8--28" target="zXYwiYEsi97WQDjfsV8--29">
          <mxGeometry relative="1" as="geometry">
            <Array as="points" />
          </mxGeometry>
        </mxCell>
        <mxCell id="zXYwiYEsi97WQDjfsV8--41" value="" style="startArrow=none;endArrow=block;exitX=0;exitY=0.61;entryX=0.5;entryY=0;rounded=0;edgeStyle=orthogonalEdgeStyle;" edge="1" parent="1" source="zXYwiYEsi97WQDjfsV8--29" target="zXYwiYEsi97WQDjfsV8--30">
          <mxGeometry relative="1" as="geometry" />
        </mxCell>
        <mxCell id="zXYwiYEsi97WQDjfsV8--42" value="" style="startArrow=none;endArrow=block;exitX=0;exitY=0.71;entryX=0.5;entryY=0;rounded=0;edgeStyle=orthogonalEdgeStyle;" edge="1" parent="1" source="zXYwiYEsi97WQDjfsV8--29" target="zXYwiYEsi97WQDjfsV8--31">
          <mxGeometry relative="1" as="geometry" />
        </mxCell>
        <mxCell id="zXYwiYEsi97WQDjfsV8--43" value="" style="curved=1;startArrow=none;endArrow=block;exitX=0.5;exitY=1;entryX=0.5;entryY=0;rounded=0;" edge="1" parent="1" source="zXYwiYEsi97WQDjfsV8--29" target="zXYwiYEsi97WQDjfsV8--32">
          <mxGeometry relative="1" as="geometry">
            <Array as="points" />
          </mxGeometry>
        </mxCell>
        <mxCell id="zXYwiYEsi97WQDjfsV8--44" value="" style="startArrow=none;endArrow=block;exitX=1;exitY=0.72;entryX=0.5;entryY=0;rounded=0;edgeStyle=orthogonalEdgeStyle;" edge="1" parent="1" source="zXYwiYEsi97WQDjfsV8--29" target="zXYwiYEsi97WQDjfsV8--33">
          <mxGeometry relative="1" as="geometry" />
        </mxCell>
        <mxCell id="zXYwiYEsi97WQDjfsV8--45" value="" style="startArrow=none;endArrow=block;exitX=1;exitY=0.62;entryX=0.5;entryY=0;rounded=0;edgeStyle=orthogonalEdgeStyle;" edge="1" parent="1" source="zXYwiYEsi97WQDjfsV8--29" target="zXYwiYEsi97WQDjfsV8--34">
          <mxGeometry relative="1" as="geometry" />
        </mxCell>
        <mxCell id="zXYwiYEsi97WQDjfsV8--46" value="" style="curved=1;startArrow=none;endArrow=block;exitX=0.5;exitY=1;entryX=0.5;entryY=0;rounded=0;" edge="1" parent="1" source="zXYwiYEsi97WQDjfsV8--30" target="zXYwiYEsi97WQDjfsV8--35">
          <mxGeometry relative="1" as="geometry">
            <Array as="points" />
          </mxGeometry>
        </mxCell>
        <mxCell id="zXYwiYEsi97WQDjfsV8--47" value="" style="curved=1;startArrow=none;endArrow=block;exitX=0.5;exitY=1;entryX=0.5;entryY=0;rounded=0;" edge="1" parent="1" source="zXYwiYEsi97WQDjfsV8--31" target="zXYwiYEsi97WQDjfsV8--36">
          <mxGeometry relative="1" as="geometry">
            <Array as="points" />
          </mxGeometry>
        </mxCell>
        <mxCell id="zXYwiYEsi97WQDjfsV8--48" value="" style="curved=1;startArrow=none;endArrow=block;exitX=0.5;exitY=1;entryX=0.5;entryY=0;rounded=0;" edge="1" parent="1" source="zXYwiYEsi97WQDjfsV8--32" target="zXYwiYEsi97WQDjfsV8--37">
          <mxGeometry relative="1" as="geometry">
            <Array as="points" />
          </mxGeometry>
        </mxCell>
        <mxCell id="zXYwiYEsi97WQDjfsV8--49" value="" style="curved=1;startArrow=none;endArrow=block;exitX=0.5;exitY=1;entryX=0.5;entryY=0;rounded=0;" edge="1" parent="1" source="zXYwiYEsi97WQDjfsV8--33" target="zXYwiYEsi97WQDjfsV8--38">
          <mxGeometry relative="1" as="geometry">
            <Array as="points" />
          </mxGeometry>
        </mxCell>
        <mxCell id="zXYwiYEsi97WQDjfsV8--50" value="" style="curved=1;startArrow=none;endArrow=block;exitX=0.5;exitY=1;entryX=0.5;entryY=0;rounded=0;" edge="1" parent="1" source="zXYwiYEsi97WQDjfsV8--34" target="zXYwiYEsi97WQDjfsV8--39">
          <mxGeometry relative="1" as="geometry">
            <Array as="points" />
          </mxGeometry>
        </mxCell>
      </root>
    </mxGraphModel>
  </diagram>
</mxfile>
